<?xml version="1.0" standalone="no"?>
<!DOCTYPE svg PUBLIC "-//W3C//DTD SVG 20010904//EN"
 "http://www.w3.org/TR/2001/REC-SVG-20010904/DTD/svg10.dtd">
<svg version="1.0" xmlns="http://www.w3.org/2000/svg"
 width="506.000000pt" height="506.000000pt" viewBox="0 0 506.000000 506.000000"
 preserveAspectRatio="xMidYMid meet">

<g transform="translate(0.000000,506.000000) scale(0.100000,-0.100000)"
fill="#000000" stroke="none">
<path d="M2260 5046 c-600 -70 -1131 -330 -1546 -757 -375 -388 -605 -857
-691 -1409 -25 -162 -25 -539 0 -700 92 -587 343 -1076 759 -1475 100 -96 278
-245 278 -232 0 3 -42 38 -92 78 -270 215 -528 535 -693 859 -73 144 -122 278
-158 435 -39 169 -40 177 -20 173 11 -2 25 -38 49 -129 199 -759 758 -1387
1493 -1679 258 -102 517 -155 816 -167 326 -12 626 35 960 151 11 4 9 1 -6 -8
-41 -24 -280 -103 -370 -122 -45 -10 -77 -20 -71 -22 17 -5 237 47 349 84 840
278 1468 962 1673 1819 54 223 65 327 63 590 0 161 -6 270 -16 330 l-14 90 -3
-85 c-2 -47 -4 -74 -7 -60 -2 14 -10 70 -19 125 -139 892 -798 1667 -1664
1954 -256 85 -502 124 -775 124 -422 -1 -761 -81 -1126 -263 -68 -35 -143 -76
-167 -92 -24 -17 -46 -27 -49 -24 -9 9 113 82 252 151 703 351 1551 339 2242
-31 484 -260 883 -681 1117 -1181 16 -35 31 -61 34 -59 8 9 -138 289 -203 388
-268 410 -651 740 -1080 931 -235 104 -443 165 -700 203 -141 21 -472 26 -615
10z m745 -320 c33 -9 103 -37 155 -63 162 -79 294 -232 335 -388 37 -144 7
-304 -86 -462 -45 -75 -187 -217 -275 -276 -95 -62 -295 -166 -429 -222 -312
-131 -432 -154 -916 -175 -119 -5 -291 -17 -382 -27 l-166 -18 6 -260 c3 -143
9 -264 14 -269 6 -6 74 -2 181 10 216 24 522 26 583 4 46 -17 54 -39 30 -77
-15 -23 -21 -25 -59 -18 -81 14 -182 20 -241 13 -33 -4 -123 -12 -200 -18
-149 -12 -266 -35 -304 -60 -24 -16 -24 -13 -70 -302 -5 -32 -12 -61 -15 -66
-3 -5 -8 -28 -11 -51 -8 -63 -47 -152 -76 -173 -32 -24 -76 -15 -91 18 -12 25
-7 51 37 174 20 58 29 113 40 250 8 96 23 222 32 280 12 73 17 165 18 302 0
183 -1 198 -21 225 -18 24 -33 83 -38 148 -1 14 12 27 44 43 43 22 52 23 180
18 74 -3 176 -10 225 -15 146 -15 529 -13 657 4 187 24 397 88 613 186 322
146 490 287 581 489 27 60 29 74 29 185 0 116 -1 122 -34 189 -39 80 -127 173
-214 225 -31 18 -96 47 -144 64 -80 28 -100 31 -213 31 -245 1 -426 -75 -617
-257 -129 -124 -204 -244 -278 -445 -28 -75 -42 -101 -53 -97 -7 3 -22 5 -32
5 -10 0 -25 7 -34 15 -13 13 -12 22 5 83 28 100 128 296 197 387 73 97 194
215 280 272 77 52 190 96 313 122 115 25 346 24 444 -3z m-458 -642 c8 -23
-25 -124 -44 -131 -27 -10 -32 18 -12 74 10 29 21 58 24 63 9 15 25 12 32 -6z
m231 -68 c3 -74 -10 -105 -34 -85 -9 8 -14 34 -14 79 0 71 5 82 30 78 11 -3
16 -19 18 -72z m1283 -692 c8 -9 10 -33 6 -67 -11 -89 -35 -250 -47 -305 -20
-91 -5 -111 85 -112 66 0 148 -27 173 -55 40 -47 22 -125 -29 -125 -11 0 -40
19 -65 42 -42 39 -51 43 -109 46 -58 4 -64 2 -78 -19 -15 -24 -27 -137 -47
-440 -15 -219 -43 -317 -137 -478 -50 -84 -70 -110 -156 -200 -170 -176 -332
-240 -577 -228 -144 7 -244 32 -580 142 -412 135 -566 168 -775 168 -195 0
-299 -33 -402 -127 -102 -92 -143 -197 -143 -360 0 -159 37 -254 139 -357 154
-155 462 -242 739 -209 239 28 450 114 803 326 207 124 336 167 490 162 l94
-3 -2 -35 c-1 -19 -2 -38 -2 -41 -1 -3 -50 -9 -110 -12 -170 -9 -261 -43 -506
-190 -242 -146 -515 -259 -699 -292 -257 -44 -569 6 -771 124 -87 51 -186 155
-224 235 -141 294 -18 683 254 806 103 47 156 55 340 54 232 -1 332 -22 752
-158 378 -123 549 -156 705 -136 170 21 271 74 399 207 164 172 246 340 269
553 14 127 4 480 -14 480 -16 0 -200 -66 -233 -83 -15 -9 -46 -24 -68 -35 -44
-21 -115 -93 -115 -117 0 -17 -35 -28 -76 -23 -27 3 -29 6 -32 56 -3 53 -3 53
61 120 36 37 77 89 92 116 44 78 75 190 75 266 0 61 -3 70 -30 98 -16 18 -30
41 -30 52 0 27 42 110 66 131 26 23 75 32 108 20 l27 -11 -6 -117 c-7 -118
-35 -264 -61 -315 -8 -16 -12 -28 -10 -28 3 0 -4 -21 -14 -46 -22 -50 -26 -84
-10 -84 6 0 65 20 131 45 66 25 129 45 140 45 24 0 67 27 78 49 5 9 5 41 1 71
-9 63 6 319 21 366 15 49 79 65 110 28z m-1320 -501 c15 -46 3 -186 -26 -298
-25 -95 -59 -181 -131 -333 -24 -51 -44 -99 -44 -107 0 -12 15 -15 69 -15 90
0 113 17 130 97 35 161 103 370 150 461 5 9 20 39 33 66 12 27 33 55 45 63 19
13 23 12 42 -8 12 -13 21 -31 21 -41 0 -25 -36 -95 -66 -127 -13 -14 -24 -31
-24 -37 0 -7 -14 -45 -31 -85 -49 -117 -69 -197 -72 -289 l-2 -85 30 -3 c80
-8 107 -39 80 -91 -20 -40 -36 -47 -123 -55 -71 -7 -74 -7 -108 23 -40 36 -37
35 -129 17 -95 -19 -115 -28 -174 -80 -29 -25 -60 -46 -71 -46 -31 0 -50 28
-50 75 0 41 3 46 44 74 67 46 116 108 176 222 79 150 121 262 123 333 2 46 -2
61 -16 70 -14 9 -21 6 -40 -15 -27 -31 -67 -59 -84 -59 -18 0 -35 38 -28 61 4
11 34 50 67 87 33 36 68 82 78 103 11 20 31 46 45 58 35 26 70 12 86 -36z
m-851 -1698 c0 -26 -75 -99 -93 -92 -24 9 -21 18 19 65 36 42 74 56 74 27z
m271 -50 c38 -50 46 -85 20 -85 -15 0 -91 93 -91 111 0 17 9 29 21 29 5 0 27
-25 50 -55z m1309 -865 c-8 -5 -19 -10 -25 -10 -5 0 -3 5 5 10 8 5 20 10 25
10 6 0 3 -5 -5 -10z"/>
<path d="M4860 3495 c0 -5 5 -17 10 -25 5 -8 10 -10 10 -5 0 6 -5 17 -10 25
-5 8 -10 11 -10 5z"/>
<path d="M4886 3430 c3 -14 11 -32 16 -40 6 -10 7 -7 2 10 -3 14 -11 32 -16
40 -6 10 -7 7 -2 -10z"/>
<path d="M2913 33 c9 -2 23 -2 30 0 6 3 -1 5 -18 5 -16 0 -22 -2 -12 -5z"/>
<path d="M2848 23 c7 -3 16 -2 19 1 4 3 -2 6 -13 5 -11 0 -14 -3 -6 -6z"/>
</g>
</svg>
